<svg xmlns="http://www.w3.org/2000/svg"
    xmlns:xlink="http://www.w3.org/1999/xlink" id="visual" viewBox="0 0 1440 225" width="1440" height="225" version="1.1">
    <path d="M0 164L34.3 160.3C68.7 156.7 137.3 149.3 205.8 142.8C274.3 136.3 342.7 130.7 411.2 126.8C479.7 123 548.3 121 617 127.8C685.7 134.7 754.3 150.3 823 160.2C891.7 170 960.3 174 1028.8 175.7C1097.3 177.3 1165.7 176.7 1234.2 173.2C1302.7 169.7 1371.3 163.3 1405.7 160.2L1440 157L1440 0L1405.7 0C1371.3 0 1302.7 0 1234.2 0C1165.7 0 1097.3 0 1028.8 0C960.3 0 891.7 0 823 0C754.3 0 685.7 0 617 0C548.3 0 479.7 0 411.2 0C342.7 0 274.3 0 205.8 0C137.3 0 68.7 0 34.3 0L0 0Z" fill="#5b8fb9"/>
    <path d="M0 132L34.3 125.5C68.7 119 137.3 106 205.8 106.5C274.3 107 342.7 121 411.2 124C479.7 127 548.3 119 617 119C685.7 119 754.3 127 823 122.5C891.7 118 960.3 101 1028.8 96.7C1097.3 92.3 1165.7 100.7 1234.2 105.2C1302.7 109.7 1371.3 110.3 1405.7 110.7L1440 111L1440 0L1405.7 0C1371.3 0 1302.7 0 1234.2 0C1165.7 0 1097.3 0 1028.8 0C960.3 0 891.7 0 823 0C754.3 0 685.7 0 617 0C548.3 0 479.7 0 411.2 0C342.7 0 274.3 0 205.8 0C137.3 0 68.7 0 34.3 0L0 0Z" fill="#3e6aa3"/>
    <path d="M0 77L34.3 79.8C68.7 82.7 137.3 88.3 205.8 90.2C274.3 92 342.7 90 411.2 83C479.7 76 548.3 64 617 66.3C685.7 68.7 754.3 85.3 823 89.7C891.7 94 960.3 86 1028.8 78.7C1097.3 71.3 1165.7 64.7 1234.2 66.5C1302.7 68.3 1371.3 78.7 1405.7 83.8L1440 89L1440 0L1405.7 0C1371.3 0 1302.7 0 1234.2 0C1165.7 0 1097.3 0 1028.8 0C960.3 0 891.7 0 823 0C754.3 0 685.7 0 617 0C548.3 0 479.7 0 411.2 0C342.7 0 274.3 0 205.8 0C137.3 0 68.7 0 34.3 0L0 0Z" fill="#324588"/>
    <path d="M0 25L34.3 25.8C68.7 26.7 137.3 28.3 205.8 33C274.3 37.7 342.7 45.3 411.2 45C479.7 44.7 548.3 36.3 617 33.2C685.7 30 754.3 32 823 31.3C891.7 30.7 960.3 27.3 1028.8 28C1097.3 28.7 1165.7 33.3 1234.2 37.2C1302.7 41 1371.3 44 1405.7 45.5L1440 47L1440 0L1405.7 0C1371.3 0 1302.7 0 1234.2 0C1165.7 0 1097.3 0 1028.8 0C960.3 0 891.7 0 823 0C754.3 0 685.7 0 617 0C548.3 0 479.7 0 411.2 0C342.7 0 274.3 0 205.8 0C137.3 0 68.7 0 34.3 0L0 0Z" fill="#301e67"/>
</svg>