<svg xmlns="http://www.w3.org/2000/svg" id="visual" viewBox="0 0 1440 225" width="1440" height="225" version="1.1">
    <g>
        <path id="wave11" d="M0 190L34.3 188C68.7 186 137.3 182 205.8 168C274.3 154 342.7 130 411.2 121.5C479.7 113 548.3 120 617 119C685.7 118 754.3 109 823 114.3C891.7 119.7 960.3 139.3 1028.8 149.8C1097.3 160.3 1165.7 161.7 1234.2 156.5C1302.7 151.3 1371.3 139.7 1405.7 133.8L1440 128L1440 0L1405.7 0C1371.3 0 1302.7 0 1234.2 0C1165.7 0 1097.3 0 1028.8 0C960.3 0 891.7 0 823 0C754.3 0 685.7 0 617 0C548.3 0 479.7 0 411.2 0C342.7 0 274.3 0 205.8 0C137.3 0 68.7 0 34.3 0L0 0Z" fill="#5b8fb9">
            <animate attributeName="d" dur="20s" repeatCount="indefinite" keyTimes="0; 0.5; 1" values="M0 190L34.3 188C68.7 186 137.3 182 205.8 168C274.3 154 342.7 130 411.2 121.5C479.7 113 548.3 120 617 119C685.7 118 754.3 109 823 114.3C891.7 119.7 960.3 139.3 1028.8 149.8C1097.3 160.3 1165.7 161.7 1234.2 156.5C1302.7 151.3 1371.3 139.7 1405.7 133.8L1440 128L1440 0L1405.7 0C1371.3 0 1302.7 0 1234.2 0C1165.7 0 1097.3 0 1028.8 0C960.3 0 891.7 0 823 0C754.3 0 685.7 0 617 0C548.3 0 479.7 0 411.2 0C342.7 0 274.3 0 205.8 0C137.3 0 68.7 0 34.3 0L0 0Z;
      M0 140L34.3 134C68.7 128 137.3 116 205.8 114.3C274.3 112.7 342.7 121.3 411.2 128.5C479.7 135.7 548.3 141.3 617 145C685.7 148.7 754.3 150.3 823 144.3C891.7 138.3 960.3 124.7 1028.8 115.7C1097.3 106.7 1165.7 102.3 1234.2 104.2C1302.7 106 1371.3 114 1405.7 118L1440 122L1440 0L1405.7 0C1371.3 0 1302.7 0 1234.2 0C1165.7 0 1097.3 0 1028.8 0C960.3 0 891.7 0 823 0C754.3 0 685.7 0 617 0C548.3 0 479.7 0 411.2 0C342.7 0 274.3 0 205.8 0C137.3 0 68.7 0 34.3 0L0 0Z;
      M0 190L34.3 188C68.7 186 137.3 182 205.8 168C274.3 154 342.7 130 411.2 121.5C479.7 113 548.3 120 617 119C685.7 118 754.3 109 823 114.3C891.7 119.7 960.3 139.3 1028.8 149.8C1097.3 160.3 1165.7 161.7 1234.2 156.5C1302.7 151.3 1371.3 139.7 1405.7 133.8L1440 128L1440 0L1405.7 0C1371.3 0 1302.7 0 1234.2 0C1165.7 0 1097.3 0 1028.8 0C960.3 0 891.7 0 823 0C754.3 0 685.7 0 617 0C548.3 0 479.7 0 411.2 0C342.7 0 274.3 0 205.8 0C137.3 0 68.7 0 34.3 0L0 0Z" />
        </path>
        <path id="wave21" d="M0 115L34.3 108.5C68.7 102 137.3 89 205.8 89.8C274.3 90.7 342.7 105.3 411.2 106C479.7 106.7 548.3 93.3 617 93.7C685.7 94 754.3 108 823 118C891.7 128 960.3 134 1028.8 126C1097.3 118 1165.7 96 1234.2 97.2C1302.7 98.3 1371.3 122.7 1405.7 134.8L1440 147L1440 0L1405.7 0C1371.3 0 1302.7 0 1234.2 0C1165.7 0 1097.3 0 1028.8 0C960.3 0 891.7 0 823 0C754.3 0 685.7 0 617 0C548.3 0 479.7 0 411.2 0C342.7 0 274.3 0 205.8 0C137.3 0 68.7 0 34.3 0L0 0Z" fill="#3e6aa3">
            <animate attributeName="d" dur="20s" repeatCount="indefinite" keyTimes="0; 0.5; 1" values="M0 115L34.3 108.5C68.7 102 137.3 89 205.8 89.8C274.3 90.7 342.7 105.3 411.2 106C479.7 106.7 548.3 93.3 617 93.7C685.7 94 754.3 108 823 118C891.7 128 960.3 134 1028.8 126C1097.3 118 1165.7 96 1234.2 97.2C1302.7 98.3 1371.3 122.7 1405.7 134.8L1440 147L1440 0L1405.7 0C1371.3 0 1302.7 0 1234.2 0C1165.7 0 1097.3 0 1028.8 0C960.3 0 891.7 0 823 0C754.3 0 685.7 0 617 0C548.3 0 479.7 0 411.2 0C342.7 0 274.3 0 205.8 0C137.3 0 68.7 0 34.3 0L0 0Z;
      M0 83L34.3 93.5C68.7 104 137.3 125 205.8 135.2C274.3 145.3 342.7 144.7 411.2 142.3C479.7 140 548.3 136 617 130.2C685.7 124.3 754.3 116.7 823 106.8C891.7 97 960.3 85 1028.8 84.5C1097.3 84 1165.7 95 1234.2 107.2C1302.7 119.3 1371.3 132.7 1405.7 139.3L1440 146L1440 0L1405.7 0C1371.3 0 1302.7 0 1234.2 0C1165.7 0 1097.3 0 1028.8 0C960.3 0 891.7 0 823 0C754.3 0 685.7 0 617 0C548.3 0 479.7 0 411.2 0C342.7 0 274.3 0 205.8 0C137.3 0 68.7 0 34.3 0L0 0Z;
      M0 115L34.3 108.5C68.7 102 137.3 89 205.8 89.8C274.3 90.7 342.7 105.3 411.2 106C479.7 106.7 548.3 93.3 617 93.7C685.7 94 754.3 108 823 118C891.7 128 960.3 134 1028.8 126C1097.3 118 1165.7 96 1234.2 97.2C1302.7 98.3 1371.3 122.7 1405.7 134.8L1440 147L1440 0L1405.7 0C1371.3 0 1302.7 0 1234.2 0C1165.7 0 1097.3 0 1028.8 0C960.3 0 891.7 0 823 0C754.3 0 685.7 0 617 0C548.3 0 479.7 0 411.2 0C342.7 0 274.3 0 205.8 0C137.3 0 68.7 0 34.3 0L0 0Z"/>
        </path>
        <path id="wave31" d="M0 93L34.3 85.5C68.7 78 137.3 63 205.8 57.7C274.3 52.3 342.7 56.7 411.2 62C479.7 67.3 548.3 73.7 617 76.5C685.7 79.3 754.3 78.7 823 81.8C891.7 85 960.3 92 1028.8 91.7C1097.3 91.3 1165.7 83.7 1234.2 83C1302.7 82.3 1371.3 88.7 1405.7 91.8L1440 95L1440 0L1405.7 0C1371.3 0 1302.7 0 1234.2 0C1165.7 0 1097.3 0 1028.8 0C960.3 0 891.7 0 823 0C754.3 0 685.7 0 617 0C548.3 0 479.7 0 411.2 0C342.7 0 274.3 0 205.8 0C137.3 0 68.7 0 34.3 0L0 0Z" fill="#324588">
            <animate attributeName="d" dur="20s" repeatCount="indefinite" keyTimes="0; 0.5; 1" values="M0 93L34.3 85.5C68.7 78 137.3 63 205.8 57.7C274.3 52.3 342.7 56.7 411.2 62C479.7 67.3 548.3 73.7 617 76.5C685.7 79.3 754.3 78.7 823 81.8C891.7 85 960.3 92 1028.8 91.7C1097.3 91.3 1165.7 83.7 1234.2 83C1302.7 82.3 1371.3 88.7 1405.7 91.8L1440 95L1440 0L1405.7 0C1371.3 0 1302.7 0 1234.2 0C1165.7 0 1097.3 0 1028.8 0C960.3 0 891.7 0 823 0C754.3 0 685.7 0 617 0C548.3 0 479.7 0 411.2 0C342.7 0 274.3 0 205.8 0C137.3 0 68.7 0 34.3 0L0 0Z;
      M0 57L34.3 64.2C68.7 71.3 137.3 85.7 205.8 87.7C274.3 89.7 342.7 79.3 411.2 70.2C479.7 61 548.3 53 617 57.2C685.7 61.3 754.3 77.7 823 85C891.7 92.3 960.3 90.7 1028.8 85.8C1097.3 81 1165.7 73 1234.2 68.2C1302.7 63.3 1371.3 61.7 1405.7 60.8L1440 60L1440 0L1405.7 0C1371.3 0 1302.7 0 1234.2 0C1165.7 0 1097.3 0 1028.8 0C960.3 0 891.7 0 823 0C754.3 0 685.7 0 617 0C548.3 0 479.7 0 411.2 0C342.7 0 274.3 0 205.8 0C137.3 0 68.7 0 34.3 0L0 0Z;
      M0 93L34.3 85.5C68.7 78 137.3 63 205.8 57.7C274.3 52.3 342.7 56.7 411.2 62C479.7 67.3 548.3 73.7 617 76.5C685.7 79.3 754.3 78.7 823 81.8C891.7 85 960.3 92 1028.8 91.7C1097.3 91.3 1165.7 83.7 1234.2 83C1302.7 82.3 1371.3 88.7 1405.7 91.8L1440 95L1440 0L1405.7 0C1371.3 0 1302.7 0 1234.2 0C1165.7 0 1097.3 0 1028.8 0C960.3 0 891.7 0 823 0C754.3 0 685.7 0 617 0C548.3 0 479.7 0 411.2 0C342.7 0 274.3 0 205.8 0C137.3 0 68.7 0 34.3 0L0 0Z"/>
        </path>
        <path id="wave41" d="M0 54L34.3 52.3C68.7 50.7 137.3 47.3 205.8 42.3C274.3 37.3 342.7 30.7 411.2 30.3C479.7 30 548.3 36 617 42.3C685.7 48.7 754.3 55.3 823 51.5C891.7 47.7 960.3 33.3 1028.8 32C1097.3 30.7 1165.7 42.3 1234.2 46.7C1302.7 51 1371.3 48 1405.7 46.5L1440 45L1440 0L1405.7 0C1371.3 0 1302.7 0 1234.2 0C1165.7 0 1097.3 0 1028.8 0C960.3 0 891.7 0 823 0C754.3 0 685.7 0 617 0C548.3 0 479.7 0 411.2 0C342.7 0 274.3 0 205.8 0C137.3 0 68.7 0 34.3 0L0 0Z" fill="#301e67">
            <animate attributeName="d" dur="20s" repeatCount="indefinite" keyTimes="0; 0.5; 1" values="M0 54L34.3 52.3C68.7 50.7 137.3 47.3 205.8 42.3C274.3 37.3 342.7 30.7 411.2 30.3C479.7 30 548.3 36 617 42.3C685.7 48.7 754.3 55.3 823 51.5C891.7 47.7 960.3 33.3 1028.8 32C1097.3 30.7 1165.7 42.3 1234.2 46.7C1302.7 51 1371.3 48 1405.7 46.5L1440 45L1440 0L1405.7 0C1371.3 0 1302.7 0 1234.2 0C1165.7 0 1097.3 0 1028.8 0C960.3 0 891.7 0 823 0C754.3 0 685.7 0 617 0C548.3 0 479.7 0 411.2 0C342.7 0 274.3 0 205.8 0C137.3 0 68.7 0 34.3 0L0 0Z;
      M0 23L34.3 30.2C68.7 37.3 137.3 51.7 205.8 54.5C274.3 57.3 342.7 48.7 411.2 41.3C479.7 34 548.3 28 617 25.5C685.7 23 754.3 24 823 32C891.7 40 960.3 55 1028.8 56C1097.3 57 1165.7 44 1234.2 37.8C1302.7 31.7 1371.3 32.3 1405.7 32.7L1440 33L1440 0L1405.7 0C1371.3 0 1302.7 0 1234.2 0C1165.7 0 1097.3 0 1028.8 0C960.3 0 891.7 0 823 0C754.3 0 685.7 0 617 0C548.3 0 479.7 0 411.2 0C342.7 0 274.3 0 205.8 0C137.3 0 68.7 0 34.3 0L0 0Z;
      M0 54L34.3 52.3C68.7 50.7 137.3 47.3 205.8 42.3C274.3 37.3 342.7 30.7 411.2 30.3C479.7 30 548.3 36 617 42.3C685.7 48.7 754.3 55.3 823 51.5C891.7 47.7 960.3 33.3 1028.8 32C1097.3 30.7 1165.7 42.3 1234.2 46.7C1302.7 51 1371.3 48 1405.7 46.5L1440 45L1440 0L1405.7 0C1371.3 0 1302.7 0 1234.2 0C1165.7 0 1097.3 0 1028.8 0C960.3 0 891.7 0 823 0C754.3 0 685.7 0 617 0C548.3 0 479.7 0 411.2 0C342.7 0 274.3 0 205.8 0C137.3 0 68.7 0 34.3 0L0 0Z"/>
        </path>
    </g>
</svg>