<svg xmlns="http://www.w3.org/2000/svg" id="visual" viewBox="0 0 1440 225" width="1440" height="225" version="1.1">
  <g>
    <path id="wave11" d="M0 59L34.3 56.8C68.7 54.7 137.3 50.3 205.8 46.8C274.3 43.3 342.7 40.7 411.2 43.7C479.7 46.7 548.3 55.3 617 61C685.7 66.7 754.3 69.3 823 72.7C891.7 76 960.3 80 1028.8 85.5C1097.3 91 1165.7 98 1234.2 95.2C1302.7 92.3 1371.3 79.7 1405.7 73.3L1440 67L1440 226L1405.7 226C1371.3 226 1302.7 226 1234.2 226C1165.7 226 1097.3 226 1028.8 226C960.3 226 891.7 226 823 226C754.3 226 685.7 226 617 226C548.3 226 479.7 226 411.2 226C342.7 226 274.3 226 205.8 226C137.3 226 68.7 226 34.3 226L0 226Z" fill="#5b8fb9"/>
    <path id="wave21" d="M0 99L34.3 98.7C68.7 98.3 137.3 97.7 205.8 99.3C274.3 101 342.7 105 411.2 102.8C479.7 100.7 548.3 92.3 617 89.5C685.7 86.7 754.3 89.3 823 96.2C891.7 103 960.3 114 1028.8 114.5C1097.3 115 1165.7 105 1234.2 101C1302.7 97 1371.3 99 1405.7 100L1440 101L1440 226L1405.7 226C1371.3 226 1302.7 226 1234.2 226C1165.7 226 1097.3 226 1028.8 226C960.3 226 891.7 226 823 226C754.3 226 685.7 226 617 226C548.3 226 479.7 226 411.2 226C342.7 226 274.3 226 205.8 226C137.3 226 68.7 226 34.3 226L0 226Z" fill="#3e6aa3"/>
    <path id="wave31" d="M0 171L34.3 167.7C68.7 164.3 137.3 157.7 205.8 151.8C274.3 146 342.7 141 411.2 134.2C479.7 127.3 548.3 118.7 617 119.8C685.7 121 754.3 132 823 134C891.7 136 960.3 129 1028.8 127.3C1097.3 125.7 1165.7 129.3 1234.2 133.2C1302.7 137 1371.3 141 1405.7 143L1440 145L1440 226L1405.7 226C1371.3 226 1302.7 226 1234.2 226C1165.7 226 1097.3 226 1028.8 226C960.3 226 891.7 226 823 226C754.3 226 685.7 226 617 226C548.3 226 479.7 226 411.2 226C342.7 226 274.3 226 205.8 226C137.3 226 68.7 226 34.3 226L0 226Z" fill="#324588"/>
    <path id="wave41" d="M0 167L34.3 166.8C68.7 166.7 137.3 166.3 205.8 167.2C274.3 168 342.7 170 411.2 175.2C479.7 180.3 548.3 188.7 617 190.8C685.7 193 754.3 189 823 181.7C891.7 174.3 960.3 163.7 1028.8 163C1097.3 162.3 1165.7 171.7 1234.2 178.2C1302.7 184.7 1371.3 188.3 1405.7 190.2L1440 192L1440 226L1405.7 226C1371.3 226 1302.7 226 1234.2 226C1165.7 226 1097.3 226 1028.8 226C960.3 226 891.7 226 823 226C754.3 226 685.7 226 617 226C548.3 226 479.7 226 411.2 226C342.7 226 274.3 226 205.8 226C137.3 226 68.7 226 34.3 226L0 226Z" fill="#301e67"/>
  </g>
  <g style="visibility: hidden">
    <path id="wave12" d="M0 62L34.3 65.2C68.7 68.3 137.3 74.7 205.8 81.7C274.3 88.7 342.7 96.3 411.2 94.5C479.7 92.7 548.3 81.3 617 71.3C685.7 61.3 754.3 52.7 823 60C891.7 67.3 960.3 90.7 1028.8 95.2C1097.3 99.7 1165.7 85.3 1234.2 79.5C1302.7 73.7 1371.3 76.3 1405.7 77.7L1440 79L1440 226L1405.7 226C1371.3 226 1302.7 226 1234.2 226C1165.7 226 1097.3 226 1028.8 226C960.3 226 891.7 226 823 226C754.3 226 685.7 226 617 226C548.3 226 479.7 226 411.2 226C342.7 226 274.3 226 205.8 226C137.3 226 68.7 226 34.3 226L0 226Z" fill="#5b8fb9"/>
    <path id="wave22" d="M0 93L34.3 96.7C68.7 100.3 137.3 107.7 205.8 113.7C274.3 119.7 342.7 124.3 411.2 122.8C479.7 121.3 548.3 113.7 617 114.8C685.7 116 754.3 126 823 122.8C891.7 119.7 960.3 103.3 1028.8 97C1097.3 90.7 1165.7 94.3 1234.2 94.3C1302.7 94.3 1371.3 90.7 1405.7 88.8L1440 87L1440 226L1405.7 226C1371.3 226 1302.7 226 1234.2 226C1165.7 226 1097.3 226 1028.8 226C960.3 226 891.7 226 823 226C754.3 226 685.7 226 617 226C548.3 226 479.7 226 411.2 226C342.7 226 274.3 226 205.8 226C137.3 226 68.7 226 34.3 226L0 226Z" fill="#3e6aa3"/>
    <path id="wave32" d="M0 126L34.3 126.8C68.7 127.7 137.3 129.3 205.8 133C274.3 136.7 342.7 142.3 411.2 143.7C479.7 145 548.3 142 617 142.2C685.7 142.3 754.3 145.7 823 148.3C891.7 151 960.3 153 1028.8 151.7C1097.3 150.3 1165.7 145.7 1234.2 141.8C1302.7 138 1371.3 135 1405.7 133.5L1440 132L1440 226L1405.7 226C1371.3 226 1302.7 226 1234.2 226C1165.7 226 1097.3 226 1028.8 226C960.3 226 891.7 226 823 226C754.3 226 685.7 226 617 226C548.3 226 479.7 226 411.2 226C342.7 226 274.3 226 205.8 226C137.3 226 68.7 226 34.3 226L0 226Z" fill="#324588"/>
    <path id="wave42" d="M0 168L34.3 169.2C68.7 170.3 137.3 172.7 205.8 171.2C274.3 169.7 342.7 164.3 411.2 166C479.7 167.7 548.3 176.3 617 183C685.7 189.7 754.3 194.3 823 196.7C891.7 199 960.3 199 1028.8 193.5C1097.3 188 1165.7 177 1234.2 171.3C1302.7 165.7 1371.3 165.3 1405.7 165.2L1440 165L1440 226L1405.7 226C1371.3 226 1302.7 226 1234.2 226C1165.7 226 1097.3 226 1028.8 226C960.3 226 891.7 226 823 226C754.3 226 685.7 226 617 226C548.3 226 479.7 226 411.2 226C342.7 226 274.3 226 205.8 226C137.3 226 68.7 226 34.3 226L0 226Z" fill="#301e67"/>
  </g>
</svg>